<?xml version="1.0" encoding="UTF-8"?>
<svg version="1.1" xmlns="http://www.w3.org/2000/svg" width="300" height="300">
<path d="M0 0 C99 0 198 0 300 0 C300 99 300 198 300 300 C201 300 102 300 0 300 C0 201 0 102 0 0 Z " fill="#FEFEFE" transform="translate(0,0)"/>
<path d="M0 0 C2.31218128 -1.13632841 4.52893801 -2.31255428 6.75 -3.625 C11.26461479 -5.53502934 15.28726632 -5.99205343 19.890625 -4.30859375 C24.72678129 -1.79589515 28.66995954 1.82836506 30.8125 6.9375 C30.874375 7.618125 30.93625 8.29875 31 9 C31.103125 10.0725 31.20625 11.145 31.3125 12.25 C30.81939793 18.16722488 28.73501541 22.34961949 24.4375 26.4375 C19.32339015 29.71577554 13.8966441 29.83663163 8 29 C3.32860208 26.86624565 0.63470873 24.05123634 -2 19.6875 C-3.55183906 13.96509347 -3.59956907 8.71458951 -2 3 C-14.25981815 -8.71493735 -28.33710308 -10.39852722 -44.6875 -10.375 C-45.68620117 -10.37368576 -45.68620117 -10.37368576 -46.70507812 -10.37234497 C-56.74867092 -10.32869425 -65.6337319 -9.89397124 -75 -6 C-76.20269531 -5.50242187 -77.40539062 -5.00484375 -78.64453125 -4.4921875 C-90.74472609 0.88087521 -100.95864587 9.3007501 -106.1328125 21.71875 C-108.43176131 30.41747522 -108.72055356 42.30463973 -104.265625 50.3046875 C-100.79171006 54.958018 -96.75213181 57.80616132 -91 59 C-74.94638513 60.62536599 -63.90905183 50.6360727 -51.9375 41.25 C-46.30540074 36.99248961 -40.68006509 34.23608367 -34 32 C-33.30003906 31.75507812 -32.60007812 31.51015625 -31.87890625 31.2578125 C-15.34566654 26.55244603 1.46180244 30.84315386 16.12890625 38.71484375 C30.16075664 46.70019857 39.60023245 60.52160817 44.1875 75.8125 C48.3422326 94.38234831 43.92921647 112.10882097 34 128 C32.42604112 130.16025857 30.83588451 132.05284976 29 134 C28.01 133.67 27.02 133.34 26 133 C26.44730469 132.35675781 26.89460937 131.71351563 27.35546875 131.05078125 C37.28576472 116.20827065 41.49374631 100.10573064 38.36328125 82.3984375 C37.6445309 79.57252149 36.83688416 76.79250465 36 74 C35.64857627 72.33705374 35.30959987 70.67123811 35 69 C33.02 69 31.04 69 29 69 C29 81.87 29 94.74 29 108 C19.76 108 10.52 108 1 108 C1 95.13 1 82.26 1 69 C-11.21 69 -23.42 69 -36 69 C-36 60.09 -36 51.18 -36 42 C-23.79 42 -11.58 42 1 42 C1 40.68 1 39.36 1 38 C0.07767578 37.90912109 0.07767578 37.90912109 -0.86328125 37.81640625 C-1.67152344 37.73261719 -2.47976562 37.64882812 -3.3125 37.5625 C-4.11300781 37.48128906 -4.91351563 37.40007812 -5.73828125 37.31640625 C-8 37 -8 37 -11 36 C-26.9704661 34.80944342 -41.04841095 37.00569045 -54 47 C-55.74735503 48.27411304 -57.5039009 49.53464758 -59.26318359 50.79223633 C-60.4681673 51.65481252 -61.66930008 52.52280473 -62.86572266 53.3972168 C-73.18273448 60.87564659 -81.21740411 62.92939844 -94 62 C-99.84191594 60.59543522 -103.42783009 57.15835448 -106.74609375 52.2578125 C-111.7746424 43.20329188 -112.49658254 32.8307718 -109.875 22.875 C-104.95212726 8.69621905 -95.34013626 0.10197596 -82.11816406 -6.31713867 C-55.67156254 -18.55040959 -23.51360954 -18.05137724 0 0 Z " fill="#1B03AE" transform="translate(173,90)"/>
<path d="M0 0 C2.31218128 -1.13632841 4.52893801 -2.31255428 6.75 -3.625 C11.26461479 -5.53502934 15.28726632 -5.99205343 19.890625 -4.30859375 C24.72678129 -1.79589515 28.66995954 1.82836506 30.8125 6.9375 C30.874375 7.618125 30.93625 8.29875 31 9 C31.103125 10.0725 31.20625 11.145 31.3125 12.25 C30.81939793 18.16722488 28.73501541 22.34961949 24.4375 26.4375 C19.32339015 29.71577554 13.8966441 29.83663163 8 29 C3.32860208 26.86624565 0.63470873 24.05123634 -2 19.6875 C-3.55183906 13.96509347 -3.59956907 8.71458951 -2 3 C-14.25981815 -8.71493735 -28.33710308 -10.39852722 -44.6875 -10.375 C-45.68620117 -10.37368576 -45.68620117 -10.37368576 -46.70507812 -10.37234497 C-56.74867092 -10.32869425 -65.6337319 -9.89397124 -75 -6 C-76.20269531 -5.50242187 -77.40539062 -5.00484375 -78.64453125 -4.4921875 C-90.74472609 0.88087521 -100.95864587 9.3007501 -106.1328125 21.71875 C-108.43176131 30.41747522 -108.72055356 42.30463973 -104.265625 50.3046875 C-100.79171006 54.958018 -96.75213181 57.80616132 -91 59 C-72.98485925 60.82396285 -59.48221629 47.27563512 -46 37 C-45.34 37.33 -44.68 37.66 -44 38 C-45.15408945 41.46226835 -45.70358429 41.71478879 -48.6875 43.5625 C-53.54824924 46.66560231 -58.21074858 49.99143209 -62.86206055 53.39672852 C-73.18761783 60.86825868 -81.21094387 62.92986815 -94 62 C-99.84191594 60.59543522 -103.42783009 57.15835448 -106.74609375 52.2578125 C-111.7746424 43.20329188 -112.49658254 32.8307718 -109.875 22.875 C-104.95212726 8.69621905 -95.34013626 0.10197596 -82.11816406 -6.31713867 C-55.67156254 -18.55040959 -23.51360954 -18.05137724 0 0 Z " fill="#3924B8" transform="translate(173,90)"/>
<path d="M0 0 C11.88 0 23.76 0 36 0 C36 8.25 36 16.5 36 25 C29.4 25 22.8 25 16 25 C14.845 22.710625 13.69 20.42125 12.5 18.0625 C9.45572905 12.19222419 6.11161408 7.30692676 1.46875 2.5390625 C0 1 0 1 0 0 Z " fill="#5F19EB" transform="translate(202,133)"/>
<path d="M0 0 C5.33739473 1.98844117 8.45333824 4.90667648 11 10 C11.37155705 15.57335568 11.24782829 19.23651851 8 24 C4.47905697 27.26331306 1.69606784 28.28814732 -3 28.5 C-7.68905622 28.29551484 -10.44966389 27.20396186 -14 24 C-17.16243115 20.31049699 -17.52750628 16.91831653 -17.34765625 12.2109375 C-16.58194456 7.3413553 -13.82243895 4.694504 -10.1875 1.625 C-6.37985365 -0.31615304 -4.22575274 -0.52821909 0 0 Z " fill="#621DEB" transform="translate(190,88)"/>
<path d="M0 0 C21.77141923 -0.35972096 39.07310548 0.23753894 57 14 C59.31218128 12.86367159 61.52893801 11.68744572 63.75 10.375 C68.26461479 8.46497066 72.28726632 8.00794657 76.890625 9.69140625 C81.72678129 12.20410485 85.66995954 15.82836506 87.8125 20.9375 C87.874375 21.618125 87.93625 22.29875 88 23 C88.103125 24.0725 88.20625 25.145 88.3125 26.25 C87.81939793 32.16722488 85.73501541 36.34961949 81.4375 40.4375 C76.32339015 43.71577554 70.8966441 43.83663163 65 43 C60.32860208 40.86624565 57.63470873 38.05123634 55 33.6875 C53.44816094 27.96509347 53.40043093 22.71458951 55 17 C43.03334097 5.56519248 27.84613522 2.64506478 11.75 2.3125 C10.04263672 2.26125977 10.04263672 2.26125977 8.30078125 2.20898438 C5.53395298 2.12760707 2.7673977 2.05810893 0 2 C0 1.34 0 0.68 0 0 Z M58.625 18.6875 C56.52183283 22.97472539 56.04777169 26.31210678 57 31 C59.06544361 35.31049101 61.49222019 38.24147051 66 40 C70.93476739 40.70031352 74.91162413 40.51450496 79.4375 38.375 C83.36664148 34.73335668 85.12217703 31.32997533 85.4375 26 C85.2674846 21.76580697 83.72839737 19.25891908 81 16 C77.70425546 13.10373965 75.09600845 12.10339702 70.6875 11.6875 C65.04819378 12.16540731 62.29951033 14.52950147 58.625 18.6875 Z " fill="#2E19B5" transform="translate(116,76)"/>
<path d="M0 0 C5.33739473 1.98844117 8.45333824 4.90667648 11 10 C11.37155705 15.57335568 11.24782829 19.23651851 8 24 C4.47905697 27.26331306 1.69606784 28.28814732 -3 28.5 C-7.68905622 28.29551484 -10.44966389 27.20396186 -14 24 C-17.16243115 20.31049699 -17.52750628 16.91831653 -17.34765625 12.2109375 C-16.58194456 7.3413553 -13.82243895 4.694504 -10.1875 1.625 C-6.37985365 -0.31615304 -4.22575274 -0.52821909 0 0 Z M-13 9 C-14.43304064 11.86608129 -14.30644155 13.81300783 -14 17 C-11.96006092 20.6578218 -10.49580738 22.66946174 -7 25 C-2.02544761 25.4606067 1.06753613 25.16781812 5 22 C7.16232881 19.24116669 7.93942763 17.48457897 8.375 14 C7.94697195 10.57577558 7.06082066 8.74776087 5 6 C-1.43242408 1.71171728 -8.39855586 2.76578535 -13 9 Z " fill="#EFEBFA" transform="translate(190,88)"/>
<path d="M0 0 C0.66 0.33 1.32 0.66 2 1 C0.84591055 4.46226835 0.29641571 4.71478879 -2.6875 6.5625 C-7.54824924 9.66560231 -12.21074858 12.99143209 -16.86206055 16.39672852 C-24.42705183 21.87072464 -30.22578694 25.15774213 -39.75 25.0625 C-40.92046875 25.05347656 -42.0909375 25.04445312 -43.296875 25.03515625 C-44.18890625 25.02355469 -45.0809375 25.01195312 -46 25 C-46.33 24.34 -46.66 23.68 -47 23 C-46.16597656 22.97421875 -45.33195312 22.9484375 -44.47265625 22.921875 C-26.36847362 22.00940761 -13.88957705 10.58611007 0 0 Z " fill="#331EB6" transform="translate(127,127)"/>
<path d="M0 0 C0 5.28 0 10.56 0 16 C-2.84473183 14.57763409 -4.86924704 13.4343 -7.3125 11.5625 C-10.71181787 9.07555316 -14.07974034 7.52010068 -18 6 C-18 5.67 -18 5.34 -18 5 C-17.03900391 4.96132812 -17.03900391 4.96132812 -16.05859375 4.921875 C-10.57578857 4.56234679 -4.48466938 0 0 0 Z " fill="#6623EC" transform="translate(201,116)"/>
<path d="M0 0 C24.98265839 -0.41277905 24.98265839 -0.41277905 35 2 C34.67 2.99 34.34 3.98 34 5 C32.78441406 4.68289062 31.56882813 4.36578125 30.31640625 4.0390625 C24.22502889 2.68542309 18.15624458 2.54724451 11.9375 2.375 C10.78572266 2.33632812 9.63394531 2.29765625 8.44726562 2.2578125 C5.63166204 2.16434848 2.8160514 2.07858748 0 2 C0 1.34 0 0.68 0 0 Z " fill="#341FB7" transform="translate(116,76)"/>
<path d="M0 0 C4.87626457 1.39321845 7.07577973 3.93858296 10 8 C11.47416599 11.51531889 11.07245286 15.23245128 11 19 C10.01 19.33 9.02 19.66 8 20 C7.96132812 19.12988281 7.96132812 19.12988281 7.921875 18.2421875 C7.52472626 12.77236619 6.60574073 9.34809912 3 5 C2.01 4.34 1.02 3.68 0 3 C0 2.01 0 1.02 0 0 Z " fill="#2A14B3" transform="translate(193,87)"/>
<path d="M0 0 C1.45698947 0.05834441 2.91402114 0.11564514 4.37109375 0.171875 C7.91463004 0.31087656 11.45738573 0.46402992 15 0.625 C15 0.955 15 1.285 15 1.625 C14.18845459 1.64481934 13.37690918 1.66463867 12.54077148 1.68505859 C8.83937251 1.78071837 5.13850635 1.89023214 1.4375 2 C0.16068359 2.0309375 -1.11613281 2.061875 -2.43164062 2.09375 C-8.66867224 2.28815099 -14.08213692 2.67405613 -20 4.625 C-23.9375 4.25 -23.9375 4.25 -27 3.625 C-18.84089893 -1.81440071 -9.33622439 -0.42793677 0 0 Z " fill="#5E4DC6" transform="translate(126,77.375)"/>
<path d="M0 0 C0.66 0.66 1.32 1.32 2 2 C-3.96425308 6.63126815 -9.41244823 8.42824098 -17 8 C-19.91550074 7.26997698 -22.26301429 6.291031 -25 5 C-25 4.34 -25 3.68 -25 3 C-24.071875 3.165 -23.14375 3.33 -22.1875 3.5 C-13.74789116 4.6469651 -7.13205115 5.07168081 0 0 Z " fill="#D7C9F8" transform="translate(199,114)"/>
<path d="M0 0 C0.99 0 1.98 0 3 0 C2.46719784 4.22489602 1.12321801 6.54080716 -1.5625 9.8125 C-2.20316406 10.60269531 -2.84382812 11.39289063 -3.50390625 12.20703125 C-3.99761719 12.79871094 -4.49132812 13.39039063 -5 14 C-5.99 13.67 -6.98 13.34 -8 13 C-7.50628906 12.22914063 -7.01257813 11.45828125 -6.50390625 10.6640625 C-5.86324219 9.66117188 -5.22257813 8.65828125 -4.5625 7.625 C-3.92441406 6.62726563 -3.28632813 5.62953125 -2.62890625 4.6015625 C-1.03100789 2.14169479 -1.03100789 2.14169479 0 0 Z " fill="#3823B8" transform="translate(207,210)"/>
<path d="M0 0 C0.66 0.33 1.32 0.66 2 1 C0.52440331 5.42679007 -1.90057368 5.91432696 -6 8 C-6.66 8 -7.32 8 -8 8 C-6.49776416 3.79373966 -3.71449966 2.26099979 0 0 Z " fill="#2D17B4" transform="translate(127,127)"/>
<path d="M0 0 C0.66 0 1.32 0 2 0 C3.4783226 2.95664519 3.06032783 5.74229737 3 9 C2.01 9.33 1.02 9.66 0 10 C0 6.7 0 3.4 0 0 Z " fill="#220BB0" transform="translate(201,97)"/>
<path d="M0 0 C0.99 0.33 1.98 0.66 3 1 C1.02 3.31 -0.96 5.62 -3 8 C-3.66 7.67 -4.32 7.34 -5 7 C-3.70700306 4.11562221 -2.34058637 2.12780579 0 0 Z " fill="#4431BC" transform="translate(76,93)"/>
<path d="M0 0 C0 0.99 0 1.98 0 3 C-6.625 4.25 -6.625 4.25 -10 2 C-8.7090864 1.66376204 -7.41723903 1.33110751 -6.125 1 C-5.40570313 0.814375 -4.68640625 0.62875 -3.9453125 0.4375 C-2 0 -2 0 0 0 Z " fill="#4734BD" transform="translate(109,78)"/>
<path d="M0 0 C0.66 0.66 1.32 1.32 2 2 C-0.75 4.0625 -0.75 4.0625 -4 6 C-5.32 5.67 -6.64 5.34 -8 5 C-4.04 2.525 -4.04 2.525 0 0 Z " fill="#E6DFF9" transform="translate(199,114)"/>
<path d="M0 0 C-1 1.5 -1 1.5 -3 3 C-5.71846235 3.27345479 -8.25677199 3.13491285 -11 3 C-8.21756596 -1.17365106 -4.53441502 -0.22300402 0 0 Z " fill="#3824B8" transform="translate(192,116)"/>
</svg>
