<?xml version="1.0" encoding="UTF-8"?>
<svg xmlns="http://www.w3.org/2000/svg" version="1.1" width="500" height="500" style="background-color:transparent;">
  <path d="M0 0 C165 0 330 0 500 0 C500 165 500 330 500 500 C335 500 170 500 0 500 C0 335 0 170 0 0 Z " fill="#FEFEFE" transform="translate(0,0)"/>
  <path d="M0 0 C2.44401013 0.01607741 4.88636187 0.00005621 7.33032227 -0.01904297 C17.73913967 -0.03206814 27.35246193 1.0966277 37.51196289 3.39111328 C38.50309082 3.60348633 39.49421875 3.81585938 40.51538086 4.03466797 C53.29458163 6.89044122 65.11721019 13.37320976 75.09399414 21.70361328 C77.56722339 23.77265056 77.56722339 23.77265056 81.51196289 23.39111328 C82.98824662 22.17727999 84.46159154 20.95913485 85.90258789 19.70361328 C91.42103775 15.2031299 97.16073188 14.73892194 104.09008789 14.91455078 C111.35558495 15.92641224 117.99288703 19.31974243 123.01196289 24.70361328 C124.33227539 26.49658203 124.33227539 26.49658203 125.51196289 28.39111328 C125.92188477 29.04724609 126.33180664 29.70337891 126.75415039 30.37939453 C130.14815799 36.78119508 130.59651458 43.28771369 129.51196289 50.39111328 C126.4066877 59.63012993 121.69896779 65.32125324 113.44946289 70.20361328 C105.86848187 73.26826518 97.55146329 73.44299644 89.88305664 70.62548828 C83.56814719 67.33799011 76.92869679 61.62947685 74.05883789 54.96923828 C72.48772394 47.56255824 71.95910174 38.13243956 75.51196289 31.39111328 C75.17219157 27.85349426 74.36270883 27.24185923 71.69946289 24.57861328 C56.29013939 12.17598705 35.3080364 5.2540927 15.57836914 5.22314453 C14.4458799 5.21815193 14.4458799 5.21815193 13.29051208 5.21305847 C11.69449467 5.20801386 10.09846679 5.20564938 8.50244141 5.20581055 C6.11284921 5.20364802 3.72373775 5.18553299 1.33422852 5.16650391 C-11.80131891 5.11648661 -24.61118635 6.02214164 -37.23803711 9.95361328 C-38.48411743 10.33670654 -38.48411743 10.33670654 -39.75537109 10.72753906 C-53.38239049 15.10577018 -66.46232834 21.16442969 -77.48803711 30.39111328 C-78.3581543 31.10009766 -79.22827148 31.80908203 -80.12475586 32.53955078 C-92.21457722 42.84029544 -100.27111005 56.68291584 -101.69287109 72.69848633 C-101.79020593 75.03774217 -101.81714462 77.36243529 -101.80053711 79.70361328 C-101.79562256 80.53175537 -101.79070801 81.35989746 -101.78564453 82.21313477 C-101.57925517 93.07768255 -99.2971958 104.80077188 -91.89038086 113.20361328 C-82.10393135 122.12065156 -71.55588644 123.19230515 -58.85864258 122.60449219 C-42.01990354 121.08883226 -26.3047591 106.27907553 -13.60522461 96.07470703 C-2.28140847 87.20387014 10.5285159 80.02460738 24.51196289 76.39111328 C25.57672852 76.09462891 26.64149414 75.79814453 27.73852539 75.49267578 C43.2990153 71.73193653 61.23432624 71.41792427 76.51196289 76.39111328 C77.72883789 76.75462891 78.94571289 77.11814453 80.19946289 77.49267578 C109.60168626 86.51233317 129.98444891 105.52380186 144.32446289 132.20361328 C154.5581387 153.42095059 156.84494195 178.71496246 150.51196289 201.39111328 C150.17165039 202.61830078 149.83133789 203.84548828 149.48071289 205.10986328 C144.65368525 220.89554827 136.49047855 235.87123448 124.51196289 247.39111328 C123.52196289 247.06111328 122.53196289 246.73111328 121.51196289 246.39111328 C122.08172852 245.54162109 122.65149414 244.69212891 123.23852539 243.81689453 C130.83101179 232.40145434 136.50642051 221.53334854 140.51196289 208.39111328 C140.87418945 207.23611328 141.23641602 206.08111328 141.60961914 204.89111328 C143.64910114 196.98039521 143.69459476 189.20352116 143.69946289 181.07861328 C143.71170898 180.01449219 143.72395508 178.95037109 143.73657227 177.85400391 C143.75354314 168.58224991 142.64504334 159.90394767 139.51196289 151.14111328 C138.03748072 146.91573153 136.68928573 142.70796368 135.51196289 138.39111328 C132.21196289 138.39111328 128.91196289 138.39111328 125.51196289 138.39111328 C125.51196289 160.17111328 125.51196289 181.95111328 125.51196289 204.39111328 C110.33196289 204.39111328 95.15196289 204.39111328 79.51196289 204.39111328 C79.51196289 182.61111328 79.51196289 160.83111328 79.51196289 138.39111328 C59.05196289 138.39111328 38.59196289 138.39111328 17.51196289 138.39111328 C17.51196289 123.54111328 17.51196289 108.69111328 17.51196289 93.39111328 C37.97196289 93.39111328 58.43196289 93.39111328 79.51196289 93.39111328 C79.51196289 91.41111328 79.51196289 89.43111328 79.51196289 87.39111328 C78.50133789 87.26736328 77.49071289 87.14361328 76.44946289 87.01611328 C72.66820714 86.41591396 69.18799772 85.44140895 65.51196289 84.39111328 C48.92252191 81.22796884 29.43259057 81.54568328 13.51196289 87.39111328 C12.30926758 87.82681641 11.10657227 88.26251953 9.86743164 88.71142578 C-0.80348717 92.9427977 -9.63365972 99.14735059 -18.62060547 106.13525391 C-36.04364435 119.66937841 -51.70507089 129.21105437 -74.48803711 127.39111328 C-84.44720363 125.83418932 -91.53634449 120.26428936 -97.88647461 112.65283203 C-106.39991427 100.63019407 -106.93047721 87.56394445 -106.48803711 73.39111328 C-106.46999023 72.55451172 -106.45194336 71.71791016 -106.43334961 70.85595703 C-105.30766664 53.14300442 -94.29725386 38.45125639 -81.53149414 27.078125 C-59.02884114 8.50066595 -28.76941807 -0.22424449 0 0 Z " fill="#1C04AE" transform="translate(210.488037109375,126.60888671875)"/>
  <path d="M0 0 C20.46 0 40.92 0 62 0 C62 14.19 62 28.38 62 43 C50.78 43 39.56 43 28 43 C26.02 38.38 24.04 33.76 22 29 C16.13856346 18.33717396 8.59877462 8.59877462 0 0 Z " fill="#601AEB" transform="translate(335,221)"/>
  <path d="M0 0 C2.13806861 1.90334032 3.36559938 3.57316272 5 6 C5.598125 6.86625 6.19625 7.7325 6.8125 8.625 C9.04099682 14.95862255 8.76248711 21.41601589 6.875 27.8125 C2.63566293 35.01937302 -1.70197592 39.7819747 -10 42 C-17.95429002 43.23268237 -24.46781943 41.73611691 -31 37 C-36.59199202 31.46589609 -38.94604866 25.39086203 -39.375 17.5625 C-39.18157644 10.86094239 -36.2215521 6.07847175 -31.8125 1.1875 C-22.43174612 -7.57320405 -10.18173068 -6.79376426 0 0 Z " fill="#6019EB" transform="translate(327,152)"/>
  <path d="M0 0 C2.13806861 1.90334032 3.36559938 3.57316272 5 6 C5.598125 6.86625 6.19625 7.7325 6.8125 8.625 C9.04099682 14.95862255 8.76248711 21.41601589 6.875 27.8125 C2.63566293 35.01937302 -1.70197592 39.7819747 -10 42 C-17.95429002 43.23268237 -24.46781943 41.73611691 -31 37 C-36.59199202 31.46589609 -38.94604866 25.39086203 -39.375 17.5625 C-39.18157644 10.86094239 -36.2215521 6.07847175 -31.8125 1.1875 C-22.43174612 -7.57320405 -10.18173068 -6.79376426 0 0 Z M-30.37890625 7.5390625 C-33.63075045 12.32051983 -33.85223595 17.3945718 -33 23 C-31.4773377 28.17164594 -28.76489247 32.23237976 -24.19140625 35.15625 C-18.49910761 37.34793718 -12.24921818 36.73610777 -6.5625 34.875 C-1.86841954 31.44030698 2.39399888 26.81216986 3.3359375 20.88671875 C3.43572978 15.26841314 2.58333822 11.40520478 -1 7 C-5.32643752 2.63967393 -9.05140664 0.85001894 -15.1875 0.625 C-21.75665942 0.70320428 -25.99939457 2.65088232 -30.37890625 7.5390625 Z " fill="#F5F3FC" transform="translate(327,152)"/>
  <path d="M0 0 C0 9.24 0 18.48 0 28 C-2.64 26.02 -5.28 24.04 -8 22 C-10.44417273 20.41000132 -12.87395456 18.86609064 -15.375 17.375 C-16.01767822 16.98965088 -16.66035645 16.60430176 -17.32250977 16.20727539 C-22.35119407 13.25236598 -27.46269665 10.86313971 -33 9 C-33 8.67 -33 8.34 -33 8 C-31.88882812 8.04640625 -30.77765625 8.0928125 -29.6328125 8.140625 C-18.56709491 8.46418399 -8.26841562 0 0 0 Z " fill="#6420EB" transform="translate(335,193)"/>
</svg>
