<?xml version="1.0"?><svg version="1.2" baseProfile="tiny-ps" viewBox="0 0 291 291" xmlns="http://www.w3.org/2000/svg" xmlns:xlink="http://www.w3.org/1999/xlink"><title>revenue</title><g><g fill="#fdfdff" transform="matrix(.1 0 0 -.1 0 291)"><path d="M0 1455V0h2910v2910H0V1455z"/></g><g fill="#cfc7f0" transform="matrix(.1 0 0 -.1 0 291)"><path d="M910 2589c-178-20-347-71-502-151l-97-51-68-54c-37-29-92-82-121-116l-53-62-35-71-34-71v-444l24-47c13-26 43-68 65-94l42-47 65-32 66-33 85-4 85-5 57 13 56 12 75 39 75 39 150 112 150 111 70 32c90 42 143 60 237 79l77 16h219l78-15c43-8 93-20 111-26l33-11v-38h-610v-470h610l2-323 3-322 238-3 237-2v650h85l23-57c33-85 49-148 63-242l12-85-7-100-6-101-20-77c-34-134-102-273-195-395l-10-12 13-13 12-12 30 29c44 42 123 161 169 251 46 94 74 181 91 286l13 77-6 133-5 133-21 80-22 80-48 100-48 100-60 80c-155 209-395 353-656 395l-78 13-127-6-127-6-93-25-93-26-82-39c-90-44-113-59-308-207-151-114-219-155-298-178l-55-16H324l-50 15c-27 8-70 28-96 44l-48 31-33 52c-19 29-42 76-51 103l-18 50-5 86-6 85 17 85 17 84 34 71 34 70 60 65 60 66 73 50c133 92 278 153 457 194l86 20 165 6 165 6 90-12c196-27 371-98 487-199l35-32-18-52-18-53-1-41v-42l17-51 16-52 40-45c21-24 58-55 81-69l43-25 60-6 59-6 56 16 56 16 50 45 49 44 23 53 23 53v132l-25 54-25 54-34 34c-19 18-56 44-84 57l-50 24h-122l-34-11c-19-7-56-27-82-46l-48-34-12 8c-7 4-34 25-62 47l-50 39-100 48-100 47-90 21c-166 37-344 48-505 30zm1259-246 45-29 29-45 28-46 6-56 6-56-28-56-27-56-39-28c-21-16-58-34-83-41l-45-12-45 6-45 7-48 32-48 32-25 45-25 45v65l1 65 22 42 22 42 35 27c19 14 52 33 72 40l38 14 54-4 54-5 46-28zm-184-19c-48-18-79-45-101-92l-16-35v-93l21-41 21-41 27-20c16-11 47-25 71-31l42-12 41 11 40 11 39 35 39 35 12 36 11 35-4 48-5 48-23 37-23 37-51 24-51 24-25-1c-14 0-43-7-65-15zm267-407c-13-14-47-36-75-48l-52-23-75-1h-75l-60 30c-33 16-63 31-67 33l-8 4v-40l83-28c148-49 272-123 379-227 91-89 145-164 209-291l56-111h328l3 218 2 217h-619l-3 146-3 146-23-25z"/></g><g fill="#947fe0" transform="matrix(.1 0 0 -.1 0 291)"><path d="M857 2579c-32-5-111-22-175-39l-116-30-102-49c-224-107-373-245-440-409l-24-57v-416l26-51c14-28 46-73 71-99l46-49 51-25 51-25 71-12 72-12 70 13 70 12 61 29c71 34 148 85 290 193l104 78 66 33c92 46 176 73 284 92l92 16 115-5 115-6 78-20c95-25 97-26 97-57v-24h-620l2-227 3-228 308-3 307-2V550h460v650h98l25-62c13-35 33-94 43-133l19-70-1-165-1-165-21-79c-27-99-98-250-157-331-49-70-52-75-31-75h14l49 54c26 30 70 91 97 135l49 81 33 89 34 89 16 94 16 93-5 125-6 125-25 92c-31 113-69 199-131 295l-48 73-81 83-81 84-73 49c-40 27-107 65-150 85l-76 36-95 25-96 24-96 6-96 6-84-12c-46-7-118-21-159-32l-75-21-100-49-100-49-130-101c-71-56-164-124-205-151l-75-48-64-21-63-21-92 4-91 4-55 26-55 25-36 37-36 36-26 54c-15 29-31 75-37 102l-11 49v180l20 78 21 78 32 62 33 61 65 66c147 149 378 261 630 306l95 17 165 1h165l70-13c111-21 204-50 290-92l80-39 58-47 58-47-6-21c-4-11-14-45-22-76l-15-56 11-55 12-56 29-45 29-46 56-37 55-37 75-5 75-5 47 18 47 18 44 41 45 41 23 50 24 50v130l-26 55c-32 69-65 105-129 138l-50 27-75-1h-75l-36-16c-19-9-52-30-71-47l-36-31-74 55c-128 97-267 152-454 180l-99 15-145-1c-80-1-171-5-203-10zm1288-218 40-18 37-41 37-41 10-38c6-21 11-58 11-83v-45l-19-41-18-40-42-35-41-36-39-11c-21-7-58-12-82-12h-44l-40 19c-49 22-91 63-116 113l-19 37v122l21 41c26 50 62 85 114 109l40 19h110l40-19zm-170-45c-17-7-45-29-62-49l-32-37-7-35c-3-20-4-54-1-76l5-40 28-36 27-35 45-20 45-20 44 5 43 5 41 26 41 27 19 42 19 42v70l-19 40c-33 71-86 105-164 105l-42-1-30-13zm252-422-49-34-41-11-42-11-67 4-68 4 72-36c87-43 148-81 206-128l42-34v141c0 77-1 141-2 140-2-1-25-16-51-35zm-387 1v-15l27-11c14-5 32-9 40-7l13 3-40 23-40 23v-16zm450-251c0-4 26-34 58-69 73-78 131-165 179-272l37-83h336v430h-305c-168 0-305-3-305-6z"/></g><g fill="#5341c3" transform="matrix(.1 0 0 -.1 0 291)"><path d="M900 2580c-223-28-431-103-603-218l-68-45-75-80-74-79-38-76-37-77-3-203-3-204 29-61c16-34 46-81 66-104l37-42 65-32 66-33 85-4 85-5 57 13 56 12 77 41 77 40 148 110c194 143 282 187 447 221l78 16h224l60-11c32-5 85-17 117-26l57-16v-57l-307-2-308-3-3-222-2-223h620V560h460v650h97l26-67c38-95 57-179 65-281l7-87-7-87-6-86-22-83-21-83-44-91c-23-49-64-118-89-152l-45-62 10-7 11-6 29 28c41 40 120 156 161 239 39 77 70 167 90 260l13 60-2 140-1 140-26 100-26 100-45 92-45 91-58 79c-170 228-430 375-715 403l-87 8-99-9-100-9-88-25-88-25-90-45c-49-24-115-63-145-87-179-139-282-212-341-243l-66-35-64-16-64-16-61 5-61 6-52 20c-99 37-163 107-202 219l-20 57-6 85-6 86 17 84 17 85 35 73 36 74 65 69c142 150 336 252 592 310l86 20 161 6 161 6 97-12c112-14 192-36 293-79 79-34 174-94 212-136l25-26-17-48-17-47v-120l24-50 23-51 48-42 48-42 55-16 56-16 53 5 53 6 46 23 47 23 38 43 38 44 17 50 17 51-6 57-5 57-19 44-20 44-34 34-34 34-50 23-50 24h-122l-43-15-43-15-42-35-42-34-24 25c-36 39-146 109-219 139-87 37-138 51-245 70l-90 16-135 4-135 4-75-9zm1223-204c20-8 53-26 72-40l35-27 26-50 25-50v-60l1-60-30-52-29-52-46-29-47-29-40-7-40-7-48 8-47 9-40 28-40 28-30 49-30 48v66l1 66 18 35c59 112 179 165 289 126zm-109-56c-72-16-126-72-139-142l-7-37 12-36c15-45 53-91 93-112l30-15h94l29 15c33 17 66 51 84 86l12 24v94l-12 24c-39 76-119 117-196 99zm226-427c-54-37-99-54-168-60l-64-6 31-13c43-18 170-101 203-132 15-14 30-23 33-20s4 62 3 130l-3 126-35-25zm-390-2c0-9 30-24 36-18 2 1-6 8-16 15l-20 12v-9zm488-295c22-24 62-73 87-108l47-63 50-102 49-103h319v420h-593l41-44z"/></g><g fill="#5f17ec" transform="matrix(.1 0 0 -.1 0 291)"><path d="M845 2565c-44-7-125-24-179-39l-100-27-111-54-112-54-80-60-80-60-47-58c-61-73-91-125-116-198l-20-58 1-81 2-81 8 65c17 141 69 256 163 358l56 59 72 50c145 100 309 167 500 204l113 22h350l100-23 100-22 82-34c87-35 163-82 228-137l39-34-19-44-20-43 1-71v-70l22-41c11-23 33-55 47-72l26-31 56-28 57-27h67l67 1 45 22 45 22 45 48 46 49 17 57 16 58-6 46-6 46-26 52-25 52-31 26c-17 14-49 36-72 47l-41 22h-150l-45-23c-25-13-57-34-71-48l-26-24-68 51c-37 28-103 69-147 91l-79 40-92 24c-51 13-130 29-177 35l-84 10-131-1-130-1-80-13zm1293-191c47-19 98-68 125-119l21-40v-130l-21-41-22-42-41-34-40-35-39-11c-21-7-58-12-83-12h-44l-51 25-51 26-28 36c-15 20-33 52-40 72l-13 36-1 51v50l25 51 26 51 34 27c19 14 50 32 67 40l33 14 53 1h53l37-16zm-124-54c-72-16-126-72-139-142l-7-37 12-36c15-45 53-91 93-112l30-15h94l29 15c33 17 66 51 84 86l12 24v94l-12 24c-39 76-119 117-196 99zm226-427c-54-37-99-54-168-60l-64-6 31-13c43-18 170-101 203-132 15-14 30-23 33-20s4 62 3 130l-3 126-35-25zm-390-2c0-9 30-24 36-18 2 1-6 8-16 15l-20 12v-9zm-400-47c-14-2-52-9-85-15-87-15-174-43-257-83-87-41-113-58-302-202l-146-111-57-28c-32-16-78-34-102-42l-44-13H314l-50 15c-28 8-70 28-95 44l-45 30-32 44c-17 24-41 68-53 98l-21 54-8 65-7 65-2-81-1-81 35-71 36-71 55-50 55-51 71-21 70-21 81 4 82 5 55 20c74 27 169 86 318 200 69 52 147 105 173 119 127 64 270 102 418 111l96 5 95-16c52-9 116-23 143-32l47-16v-68h-610v-440h610V560h460v651l51-3 51-3 20-50c36-90 57-176 69-282l12-105-12-101-12-102-35-103-34-104-37-65c-20-36-51-85-70-109-58-77-37-91 24-17 103 124 165 240 207 386l25 84 10 96 11 96-10 95c-5 53-14 115-19 138-26 113-93 261-166 363l-43 61-89 84-90 85-70 42c-95 56-201 100-298 124l-80 20-115 4c-63 2-126 2-140-1zm888-248c22-24 62-73 87-108l47-63 50-102 49-103h319v420h-593l41-44z"/></g><g fill="#1a03ae" transform="matrix(.1 0 0 -.1 0 291)"><path d="M845 2565c-44-7-125-24-179-39l-100-27-111-54-112-54-80-60-80-60-47-58c-61-73-91-125-116-198l-20-58 1-81 2-81 8 65c17 141 69 256 163 358l56 59 72 50c145 100 309 167 500 204l113 22h350l100-23 100-22 82-34c87-35 163-82 228-137l39-34-19-44-20-43 1-71v-70l22-41c11-23 33-55 47-72l26-31 56-28 57-27h67l67 1 45 22 45 22 45 48 46 49 17 57 16 58-6 46-6 46-26 52-25 52-31 26c-17 14-49 36-72 47l-41 22h-150l-45-23c-25-13-57-34-71-48l-26-24-68 51c-37 28-103 69-147 91l-79 40-92 24c-51 13-130 29-177 35l-84 10-131-1-130-1-80-13zm1293-191c47-19 98-68 125-119l21-40v-130l-21-41-22-42-41-34-40-35-39-11c-21-7-58-12-83-12h-44l-51 25-51 26-28 36c-15 20-33 52-40 72l-13 36-1 51v50l25 51 26 51 34 27c19 14 50 32 67 40l33 14 53 1h53l37-16zm-688-530c-14-2-52-9-85-15-87-15-174-43-257-83-87-41-113-58-302-202l-146-111-57-28c-32-16-78-34-102-42l-44-13H314l-50 15c-28 8-70 28-95 44l-45 30-32 44c-17 24-41 68-53 98l-21 54-8 65-7 65-2-81-1-81 35-71 36-71 55-50 55-51 71-21 70-21 81 4 82 5 55 20c74 27 169 86 318 200 69 52 147 105 173 119 127 64 270 102 418 111l96 5 95-16c52-9 116-23 143-32l47-16v-68h-610v-440h610V560h460v651l51-3 51-3 20-50c36-90 57-176 69-282l12-105-12-101-12-102-35-103-34-104-37-65c-20-36-51-85-70-109-58-77-37-91 24-17 103 124 165 240 207 386l25 84 10 96 11 96-10 95c-5 53-14 115-19 138-26 113-93 261-166 363l-43 61-89 84-90 85-70 42c-95 56-201 100-298 124l-80 20-115 4c-63 2-126 2-140-1z"/></g></g></svg>